<svg xmlns="http://www.w3.org/2000/svg" width="1200" height="680" viewBox="0 0 1200 680">
<rect width="100%" height="100%" fill="#f7f8fa"/>
<style>text{font-family:Arial,sans-serif;fill:#20242a}.title{font-size:24px;font-weight:700}.label{font-size:12px}.small{font-size:10px}</style>
<text x="600" y="34" text-anchor="middle" class="title">3D IC Placement</text>
<text x="315" y="70" text-anchor="middle" class="title">Top Die</text>
<rect x="55" y="90" width="520" height="520" fill="white" stroke="#263238" stroke-width="2"/>
<line x1="55" y1="436.667" x2="575" y2="436.667" stroke="#e4e7eb"/>
<line x1="55" y1="263.333" x2="575" y2="263.333" stroke="#e4e7eb"/>
<text x="885" y="70" text-anchor="middle" class="title">Bottom Die</text>
<rect x="625" y="90" width="520" height="520" fill="white" stroke="#263238" stroke-width="2"/>
<line x1="625" y1="350" x2="1145" y2="350" stroke="#e4e7eb"/>
<rect x="55" y="436.667" width="121.333" height="173.333" rx="2" fill="hsl(56,65%,72%)" stroke="#455a64" stroke-width="1"><title>C1 (MC1) at 0,0</title></rect>
<text x="115.667" y="527.333" text-anchor="middle" class="label">C1</text>
<rect x="55" y="263.333" width="277.333" height="173.333" rx="2" fill="hsl(54,65%,72%)" stroke="#455a64" stroke-width="1"><title>C2 (MC3) at 0,10</title></rect>
<text x="193.667" y="354" text-anchor="middle" class="label">C2</text>
<rect x="176.333" y="436.667" width="277.333" height="173.333" rx="2" fill="hsl(54,65%,72%)" stroke="#455a64" stroke-width="1"><title>C3 (MC3) at 7,0</title></rect>
<text x="315" y="527.333" text-anchor="middle" class="label">C3</text>
<rect x="176.333" y="90" width="277.333" height="173.333" rx="2" fill="hsl(54,65%,72%)" stroke="#455a64" stroke-width="1"><title>C7 (MC3) at 7,20</title></rect>
<text x="315" y="180.667" text-anchor="middle" class="label">C7</text>
<rect x="332.333" y="263.333" width="121.333" height="173.333" rx="2" fill="hsl(56,65%,72%)" stroke="#455a64" stroke-width="1"><title>C8 (MC1) at 16,10</title></rect>
<text x="393" y="354" text-anchor="middle" class="label">C8</text>
<rect x="885" y="90" width="208" height="260" rx="2" fill="hsl(233,65%,72%)" stroke="#455a64" stroke-width="1"><title>C4 (MC2) at 15,15</title></rect>
<text x="989" y="224" text-anchor="middle" class="label">C4</text>
<rect x="677" y="90" width="208" height="260" rx="2" fill="hsl(233,65%,72%)" stroke="#455a64" stroke-width="1"><title>C5 (MC2) at 3,15</title></rect>
<text x="781" y="224" text-anchor="middle" class="label">C5</text>
<rect x="746.333" y="350" width="277.333" height="260" rx="2" fill="hsl(54,65%,72%)" stroke="#455a64" stroke-width="1"><title>C6 (MC3) at 7,0</title></rect>
<text x="885" y="484" text-anchor="middle" class="label">C6</text>
<circle cx="297.667" cy="471.333" r="5" fill="#e53935" stroke="white" stroke-width="1.5"><title>Terminal N4 at 14,8</title></circle>
<text x="304.667" y="464.333" class="small">N4</text>
<circle cx="867.667" cy="471.333" r="5" fill="#e53935" stroke="white" stroke-width="1.5"><title>Terminal N4 at 14,8</title></circle>
<text x="874.667" y="464.333" class="small">N4</text>
<rect x="55" y="630" width="12" height="12" fill="hsl(210,65%,72%)" stroke="#455a64"/><text x="74" y="641" class="label">Standard cell</text>
<circle cx="210" cy="636" r="5" fill="#e53935"/><text x="222" y="641" class="label">Cross-die terminal</text>
</svg>
